<svg width="2000px" height="767px"
 viewBox="0.00 0.00 1396.97 535.68" xmlns="http://www.w3.org/2000/svg" xmlns:xlink="http://www.w3.org/1999/xlink">
<g id="graph0" class="graph" transform="scale(1.0 1.0) rotate(0) translate(4 531.68)">
<title>ContextMapGraph</title>
<polygon fill="white" stroke="transparent" points="-4,4 -4,-531.68 1392.97,-531.68 1392.97,4 -4,4"/>
<!-- CustomerManagementContext -->
<g id="node1" class="node">
<title>CustomerManagementContext</title>
<polygon fill="none" stroke="black" stroke-width="2" points="1205.5,-378.13 1192.55,-378.93 1179.53,-379.6 1166.49,-380.16 1153.49,-380.58 1140.57,-380.87 1127.78,-381.04 1115.18,-381.07 1102.8,-380.96 1090.7,-380.72 1078.91,-380.35 1067.47,-379.84 1056.42,-379.2 1045.8,-378.42 1035.64,-377.52 1025.95,-376.49 1016.78,-375.33 1008.13,-374.05 1000.03,-372.66 992.5,-371.15 985.54,-369.53 979.16,-367.81 973.37,-366 968.17,-364.09 963.57,-362.1 959.56,-360.03 956.12,-357.89 953.27,-355.69 950.99,-353.43 949.26,-351.12 948.07,-348.77 947.42,-346.39 947.27,-343.98 947.63,-341.56 948.47,-339.12 949.77,-336.69 951.51,-334.26 953.69,-331.84 956.27,-329.45 959.25,-327.09 962.6,-324.76 966.31,-322.48 970.37,-320.24 974.75,-318.06 979.45,-315.95 984.46,-313.9 989.75,-311.93 995.32,-310.04 1001.17,-308.23 1007.27,-306.51 1013.62,-304.88 1020.23,-303.35 1027.07,-301.91 1034.14,-300.58 1041.45,-299.35 1048.98,-298.23 1056.72,-297.21 1064.68,-296.31 1072.85,-295.52 1081.23,-294.84 1089.81,-294.27 1098.58,-293.81 1107.53,-293.46 1116.67,-293.23 1125.97,-293.1 1135.44,-293.09 1145.05,-293.19 1154.79,-293.39 1164.66,-293.7 1174.63,-294.11 1184.68,-294.63 1194.8,-295.24 1204.96,-295.96 1215.13,-296.77 1225.3,-297.67 1235.43,-298.67 1245.49,-299.75 1255.46,-300.93 1265.29,-302.18 1274.96,-303.51 1284.43,-304.92 1293.67,-306.41 1302.63,-307.97 1311.29,-309.59 1319.59,-311.28 1327.51,-313.03 1335,-314.84 1342.03,-316.71 1348.57,-318.62 1354.57,-320.58 1360,-322.59 1364.84,-324.63 1369.04,-326.71 1372.59,-328.81 1375.45,-330.95 1377.6,-333.1 1379.03,-335.27 1379.72,-337.45 1379.64,-339.64 1378.8,-341.83 1377.19,-344.02 1374.8,-346.19 1371.63,-348.35 1367.69,-350.49 1362.99,-352.61 1357.54,-354.69 1351.36,-356.74 1344.47,-358.74 1336.89,-360.69 1328.65,-362.58 1319.78,-364.42 1310.32,-366.18 1300.3,-367.87 1289.77,-369.49 1278.77,-371.02 1267.34,-372.46 1255.53,-373.8 1243.39,-375.05 1230.97,-376.18 1218.32,-377.21 1205.5,-378.13"/>
<text text-anchor="middle" x="1150.84" y="-332.14" font-family="sans-serif" font-size="16.00">CustomerManagementContext</text>
</g>
<!-- ProductCatalogManagementContext -->
<g id="node2" class="node">
<title>ProductCatalogManagementContext</title>
<polygon fill="none" stroke="black" stroke-width="2" points="916.72,-185.8 919.37,-182.98 922.65,-180.2 926.54,-177.47 931.05,-174.81 936.14,-172.21 941.82,-169.7 948.05,-167.28 954.83,-164.97 962.12,-162.77 969.92,-160.68 978.2,-158.72 986.93,-156.9 996.1,-155.21 1005.67,-153.67 1015.62,-152.28 1025.92,-151.03 1036.55,-149.95 1047.48,-149.01 1058.67,-148.24 1070.1,-147.62 1081.73,-147.16 1093.55,-146.85 1105.51,-146.7 1117.58,-146.69 1129.74,-146.83 1141.95,-147.12 1154.17,-147.54 1166.39,-148.1 1178.56,-148.78 1190.66,-149.58 1202.65,-150.5 1214.5,-151.53 1226.19,-152.67 1237.68,-153.89 1248.93,-155.21 1259.94,-156.61 1270.65,-158.08 1281.05,-159.62 1291.11,-161.23 1300.8,-162.89 1310.1,-164.6 1318.98,-166.35 1327.41,-168.15 1335.38,-169.97 1342.86,-171.82 1349.83,-173.7 1356.28,-175.59 1362.18,-177.5 1367.51,-179.42 1372.27,-181.34 1376.43,-183.28 1379.99,-185.21 1382.93,-187.15 1385.25,-189.08 1386.93,-191.01 1387.97,-192.93 1388.36,-194.84 1388.11,-196.75 1387.21,-198.65 1385.66,-200.53 1383.46,-202.41 1380.62,-204.27 1377.14,-206.11 1373.04,-207.94 1368.31,-209.75 1362.98,-211.54 1357.06,-213.31 1350.55,-215.06 1343.48,-216.78 1335.87,-218.47 1327.74,-220.13 1319.1,-221.75 1309.98,-223.34 1300.41,-224.88 1290.41,-226.37 1280.01,-227.82 1269.24,-229.2 1258.13,-230.53 1246.71,-231.79 1235.01,-232.98 1223.06,-234.09 1210.91,-235.11 1198.58,-236.05 1186.1,-236.89 1173.53,-237.63 1160.88,-238.27 1148.2,-238.79 1135.53,-239.2 1122.9,-239.48 1110.34,-239.64 1097.9,-239.67 1085.61,-239.56 1073.5,-239.31 1061.62,-238.92 1049.99,-238.38 1038.64,-237.7 1027.62,-236.88 1016.95,-235.9 1006.66,-234.78 996.78,-233.52 987.34,-232.1 978.37,-230.55 969.88,-228.86 961.92,-227.04 954.48,-225.08 947.61,-223.01 941.3,-220.82 935.59,-218.51 930.49,-216.11 926,-213.62 922.15,-211.04 918.93,-208.38 916.36,-205.67 914.44,-202.9 913.18,-200.08 912.58,-197.24 912.64,-194.38 913.35,-191.51 914.71,-188.65 916.72,-185.8"/>
<text text-anchor="middle" x="1150.84" y="-190.09" font-family="sans-serif" font-size="16.00">ProductCatalogManagementContext</text>
</g>
<!-- CustomerManagementContext&#45;&gt;ProductCatalogManagementContext -->
<g id="edge1" class="edge">
<title>CustomerManagementContext&#45;&gt;ProductCatalogManagementContext</title>
<path fill="none" stroke="black" stroke-width="2" d="M1150.84,-293.3C1150.84,-276.2 1150.84,-256.39 1150.84,-239.05"/>
<text text-anchor="middle" x="1206.84" y="-263.02" font-family="sans-serif" font-size="12.00">Customer/Supplier</text>
<polygon fill="white" stroke="transparent" points="1143.84,-230.05 1143.84,-247.05 1157.84,-247.05 1157.84,-230.05 1143.84,-230.05"/>
<text text-anchor="start" x="1145.84" y="-235.45" font-family="sans-serif" font-size="12.00">D</text>
<polygon fill="white" stroke="transparent" points="1143.84,-284.3 1143.84,-301.3 1157.84,-301.3 1157.84,-284.3 1143.84,-284.3"/>
<text text-anchor="start" x="1145.84" y="-289.7" font-family="sans-serif" font-size="12.00">U</text>
</g>
<!-- InventoryManagementContext -->
<g id="node3" class="node">
<title>InventoryManagementContext</title>
<polygon fill="none" stroke="black" stroke-width="2" points="1027.03,-9.72 1038.91,-8.36 1050.98,-7.13 1063.19,-6.02 1075.49,-5.03 1087.84,-4.17 1100.18,-3.45 1112.48,-2.86 1124.68,-2.42 1136.76,-2.12 1148.65,-1.97 1160.34,-1.96 1171.77,-2.1 1182.91,-2.39 1193.74,-2.83 1204.22,-3.41 1214.33,-4.14 1224.04,-5.01 1233.33,-6.01 1242.17,-7.16 1250.56,-8.43 1258.49,-9.83 1265.93,-11.35 1272.88,-12.99 1279.33,-14.73 1285.29,-16.58 1290.74,-18.52 1295.69,-20.55 1300.14,-22.66 1304.1,-24.84 1307.56,-27.09 1310.54,-29.39 1313.03,-31.74 1315.06,-34.12 1316.63,-36.54 1317.75,-38.98 1318.42,-41.43 1318.66,-43.89 1318.48,-46.35 1317.89,-48.79 1316.89,-51.21 1315.5,-53.61 1313.72,-55.97 1311.57,-58.3 1309.04,-60.57 1306.16,-62.79 1302.92,-64.96 1299.32,-67.05 1295.38,-69.08 1291.1,-71.04 1286.48,-72.91 1281.53,-74.7 1276.25,-76.4 1270.63,-78.02 1264.7,-79.54 1258.43,-80.97 1251.85,-82.31 1244.95,-83.54 1237.74,-84.68 1230.22,-85.71 1222.39,-86.65 1214.26,-87.48 1205.84,-88.22 1197.14,-88.85 1188.16,-89.38 1178.92,-89.81 1169.43,-90.14 1159.7,-90.37 1149.74,-90.5 1139.59,-90.54 1129.25,-90.48 1118.76,-90.32 1108.12,-90.07 1097.38,-89.72 1086.55,-89.29 1075.67,-88.76 1064.76,-88.14 1053.87,-87.44 1043.02,-86.64 1032.26,-85.77 1021.61,-84.8 1011.12,-83.76 1000.83,-82.63 990.77,-81.42 981,-80.13 971.54,-78.77 962.44,-77.33 953.73,-75.82 945.47,-74.23 937.67,-72.58 930.4,-70.86 923.67,-69.07 917.52,-67.23 911.98,-65.32 907.09,-63.36 902.87,-61.35 899.35,-59.29 896.54,-57.19 894.47,-55.04 893.14,-52.86 892.58,-50.65 892.78,-48.42 893.76,-46.17 895.52,-43.9 898.04,-41.62 901.33,-39.35 905.37,-37.07 910.15,-34.81 915.65,-32.57 921.85,-30.35 928.72,-28.17 936.24,-26.02 944.37,-23.93 953.09,-21.88 962.35,-19.9 972.12,-17.99 982.35,-16.15 993,-14.4 1004.03,-12.74 1015.39,-11.18 1027.03,-9.72"/>
<text text-anchor="middle" x="1121.84" y="-44.78" font-family="sans-serif" font-size="16.00">InventoryManagementContext</text>
</g>
<!-- ProductCatalogManagementContext&#45;&gt;InventoryManagementContext -->
<g id="edge2" class="edge">
<title>ProductCatalogManagementContext&#45;&gt;InventoryManagementContext</title>
<path fill="none" stroke="black" stroke-width="2" d="M1141.51,-146.76C1137.87,-128.75 1133.72,-108.28 1130.18,-90.78"/>
<text text-anchor="middle" x="1178.84" y="-118.55" font-family="sans-serif" font-size="12.00">Shared Kernel</text>
</g>
<!-- OrderManagementContext -->
<g id="node4" class="node">
<title>OrderManagementContext</title>
<polygon fill="none" stroke="black" stroke-width="2" points="856.97,-39.16 859.7,-41.96 861.93,-44.77 863.63,-47.57 864.8,-50.36 865.44,-53.13 865.52,-55.86 865.06,-58.55 864.05,-61.18 862.48,-63.74 860.37,-66.23 857.71,-68.64 854.5,-70.96 850.77,-73.18 846.51,-75.3 841.74,-77.3 836.47,-79.2 830.72,-80.97 824.51,-82.62 817.84,-84.15 810.76,-85.54 803.27,-86.81 795.4,-87.95 787.18,-88.96 778.63,-89.83 769.79,-90.58 760.67,-91.19 751.31,-91.69 741.75,-92.05 732.01,-92.3 722.12,-92.43 712.12,-92.44 702.03,-92.35 691.9,-92.14 681.75,-91.84 671.62,-91.43 661.54,-90.93 651.54,-90.34 641.64,-89.67 631.89,-88.91 622.31,-88.07 612.92,-87.16 603.76,-86.18 594.85,-85.13 586.22,-84.02 577.89,-82.85 569.88,-81.62 562.22,-80.33 554.92,-78.99 548,-77.6 541.47,-76.16 535.36,-74.67 529.68,-73.14 524.43,-71.57 519.63,-69.95 515.28,-68.28 511.4,-66.58 507.99,-64.84 505.05,-63.06 502.58,-61.24 500.6,-59.38 499.09,-57.49 498.06,-55.56 497.5,-53.61 497.42,-51.62 497.8,-49.6 498.65,-47.56 499.95,-45.5 501.71,-43.41 503.9,-41.31 506.53,-39.2 509.58,-37.08 513.04,-34.95 516.91,-32.83 521.17,-30.71 525.8,-28.61 530.81,-26.52 536.17,-24.46 541.88,-22.43 547.91,-20.44 554.26,-18.5 560.91,-16.61 567.84,-14.78 575.05,-13.03 582.5,-11.35 590.2,-9.75 598.12,-8.25 606.25,-6.86 614.57,-5.56 623.05,-4.39 631.69,-3.34 640.46,-2.42 649.35,-1.63 658.34,-0.99 667.4,-0.49 676.51,-0.14 685.66,0.05 694.82,0.08 703.98,-0.05 713.1,-0.35 722.18,-0.81 731.17,-1.43 740.07,-2.22 748.85,-3.17 757.48,-4.28 765.94,-5.55 774.21,-6.98 782.26,-8.55 790.07,-10.27 797.62,-12.12 804.89,-14.1 811.84,-16.21 818.46,-18.43 824.72,-20.76 830.61,-23.18 836.1,-25.69 841.18,-28.28 845.82,-30.93 850.01,-33.63 853.73,-36.38 856.97,-39.16"/>
<text text-anchor="middle" x="677.84" y="-44.78" font-family="sans-serif" font-size="16.00">OrderManagementContext</text>
</g>
<!-- ProductCatalogManagementContext&#45;&gt;OrderManagementContext -->
<g id="edge3" class="edge">
<title>ProductCatalogManagementContext&#45;&gt;OrderManagementContext</title>
<path fill="none" stroke="black" stroke-width="2" d="M1080.69,-147.04C1059.34,-134.93 1035.3,-123.05 1011.84,-115.15 957.4,-96.82 940.33,-107.63 883.84,-97.15 862.82,-93.26 840.7,-88.67 819.07,-83.91"/>
<text text-anchor="middle" x="1078.34" y="-118.55" font-family="sans-serif" font-size="12.00">Partnership</text>
</g>
<!-- PaymentManagementContext -->
<g id="node5" class="node">
<title>PaymentManagementContext</title>
<polygon fill="none" stroke="black" stroke-width="2" points="75.62,-224.2 66.46,-222.13 57.76,-219.99 49.56,-217.79 41.89,-215.54 34.78,-213.24 28.27,-210.9 22.38,-208.53 17.15,-206.14 12.58,-203.74 8.71,-201.34 5.54,-198.94 3.09,-196.55 1.38,-194.17 0.4,-191.82 0.16,-189.51 0.65,-187.23 1.88,-184.99 3.84,-182.8 6.51,-180.66 9.89,-178.58 13.94,-176.56 18.66,-174.61 24.02,-172.72 30,-170.91 36.56,-169.17 43.67,-167.51 51.31,-165.92 59.43,-164.42 68.01,-163 77,-161.67 86.37,-160.41 96.08,-159.25 106.08,-158.16 116.34,-157.17 126.82,-156.26 137.48,-155.44 148.27,-154.71 159.16,-154.06 170.11,-153.5 181.09,-153.04 192.06,-152.65 202.98,-152.36 213.82,-152.16 224.55,-152.05 235.14,-152.02 245.57,-152.09 255.8,-152.24 265.81,-152.49 275.59,-152.83 285.11,-153.26 294.36,-153.78 303.31,-154.39 311.95,-155.09 320.28,-155.89 328.28,-156.78 335.93,-157.77 343.24,-158.84 350.2,-160.01 356.8,-161.27 363.03,-162.62 368.9,-164.06 374.4,-165.59 379.53,-167.2 384.29,-168.9 388.67,-170.68 392.68,-172.54 396.32,-174.48 399.58,-176.49 402.46,-178.57 404.97,-180.71 407.09,-182.91 408.84,-185.17 410.2,-187.48 411.18,-189.83 411.78,-192.21 411.98,-194.63 411.79,-197.06 411.2,-199.52 410.21,-201.97 408.82,-204.43 407.01,-206.88 404.79,-209.31 402.16,-211.72 399.1,-214.08 395.61,-216.41 391.7,-218.68 387.35,-220.89 382.57,-223.03 377.36,-225.1 371.71,-227.07 365.64,-228.95 359.13,-230.73 352.2,-232.4 344.86,-233.95 337.1,-235.38 328.95,-236.68 320.4,-237.84 311.49,-238.86 302.22,-239.74 292.61,-240.47 282.69,-241.05 272.47,-241.48 261.98,-241.75 251.25,-241.86 240.3,-241.82 229.18,-241.62 217.9,-241.26 206.52,-240.76 195.06,-240.1 183.56,-239.29 172.07,-238.34 160.61,-237.25 149.25,-236.03 138,-234.67 126.93,-233.19 116.08,-231.6 105.47,-229.9 95.17,-228.09 85.21,-226.19 75.62,-224.2"/>
<text text-anchor="middle" x="221.84" y="-190.09" font-family="sans-serif" font-size="16.00">PaymentManagementContext</text>
</g>
<!-- PaymentManagementContext&#45;&gt;OrderManagementContext -->
<g id="edge4" class="edge">
<title>PaymentManagementContext&#45;&gt;OrderManagementContext</title>
<path fill="none" stroke="black" stroke-width="2" d="M334.56,-157.46C407.75,-134.46 502.44,-104.7 573.83,-82.27"/>
<text text-anchor="middle" x="518.84" y="-118.55" font-family="sans-serif" font-size="12.00">Customer/Supplier</text>
<polygon fill="white" stroke="transparent" points="566.83,-73.27 566.83,-90.27 580.83,-90.27 580.83,-73.27 566.83,-73.27"/>
<text text-anchor="start" x="568.83" y="-78.67" font-family="sans-serif" font-size="12.00">D</text>
<polygon fill="white" stroke="transparent" points="327.56,-148.46 327.56,-165.46 341.56,-165.46 341.56,-148.46 327.56,-148.46"/>
<text text-anchor="start" x="329.56" y="-153.86" font-family="sans-serif" font-size="12.00">U</text>
</g>
<!-- SecurityManagementContext -->
<g id="node6" class="node">
<title>SecurityManagementContext</title>
<polygon fill="none" stroke="black" stroke-width="2" points="1322.08,-456.67 1328.8,-459.13 1335,-461.64 1340.67,-464.19 1345.76,-466.77 1350.27,-469.36 1354.16,-471.96 1357.43,-474.55 1360.05,-477.14 1362.02,-479.7 1363.31,-482.23 1363.93,-484.73 1363.86,-487.18 1363.11,-489.57 1361.68,-491.91 1359.57,-494.18 1356.78,-496.38 1353.34,-498.5 1349.24,-500.53 1344.51,-502.48 1339.16,-504.34 1333.22,-506.11 1326.71,-507.78 1319.65,-509.35 1312.07,-510.82 1304.01,-512.19 1295.48,-513.46 1286.54,-514.62 1277.21,-515.68 1267.53,-516.64 1257.53,-517.5 1247.25,-518.26 1236.74,-518.92 1226.03,-519.48 1215.16,-519.94 1204.16,-520.31 1193.09,-520.58 1181.97,-520.76 1170.85,-520.85 1159.75,-520.85 1148.72,-520.77 1137.79,-520.6 1127,-520.34 1116.37,-520 1105.94,-519.59 1095.73,-519.09 1085.77,-518.51 1076.09,-517.85 1066.71,-517.12 1057.65,-516.31 1048.93,-515.42 1040.57,-514.45 1032.58,-513.42 1024.98,-512.3 1017.78,-511.11 1010.99,-509.85 1004.62,-508.52 998.68,-507.11 993.17,-505.63 988.1,-504.08 983.47,-502.45 979.28,-500.76 975.54,-499 972.24,-497.18 969.38,-495.29 966.97,-493.34 964.99,-491.33 963.46,-489.26 962.36,-487.14 961.69,-484.97 961.45,-482.76 961.63,-480.51 962.23,-478.23 963.25,-475.91 964.68,-473.58 966.52,-471.23 968.77,-468.86 971.42,-466.5 974.46,-464.14 977.9,-461.8 981.73,-459.47 985.94,-457.18 990.53,-454.92 995.5,-452.71 1000.83,-450.55 1006.54,-448.46 1012.6,-446.44 1019.01,-444.5 1025.77,-442.65 1032.87,-440.9 1040.3,-439.25 1048.04,-437.72 1056.09,-436.31 1064.44,-435.03 1073.07,-433.88 1081.97,-432.87 1091.13,-432.01 1100.52,-431.3 1110.12,-430.74 1119.92,-430.35 1129.9,-430.11 1140.03,-430.03 1150.29,-430.13 1160.64,-430.38 1171.08,-430.8 1181.56,-431.38 1192.05,-432.12 1202.53,-433.03 1212.97,-434.08 1223.32,-435.29 1233.56,-436.64 1243.65,-438.13 1253.56,-439.76 1263.25,-441.52 1272.69,-443.39 1281.84,-445.37 1290.67,-447.46 1299.14,-449.64 1307.22,-451.91 1314.88,-454.26 1322.08,-456.67"/>
<text text-anchor="middle" x="1150.84" y="-475.17" font-family="sans-serif" font-size="16.00">SecurityManagementContext</text>
</g>
<!-- SecurityManagementContext&#45;&gt;CustomerManagementContext -->
<g id="edge5" class="edge">
<title>SecurityManagementContext&#45;&gt;CustomerManagementContext</title>
<path fill="none" stroke="black" stroke-width="2" d="M1070.79,-434.11C1062.02,-423.81 1058.31,-412.05 1064.84,-399.25 1068.28,-392.52 1072.82,-386.34 1078.03,-380.72"/>
<text text-anchor="middle" x="1140.34" y="-402.65" font-family="sans-serif" font-size="12.00"> &#160;&#160;&#160;&#160;&#160;&#160;&#160;&#160;&#160;&#160;&#160;&#160;&#160;&#160;&#160;&#160;&#160;&#160;&#160;&#160;&#160;&#160;&#160;&#160;&#160;&#160;&#160;&#160;&#160;&#160;&#160;&#160;&#160;&#160;&#160;&#160;&#160;&#160;&#160;</text>
<polygon fill="white" stroke="transparent" points="1055.03,-370.72 1055.03,-389.72 1071.03,-389.72 1071.03,-370.72 1055.03,-370.72"/>
<polyline fill="none" stroke="black" points="1071.03,-370.72 1071.03,-389.72 "/>
<text text-anchor="start" x="1058.03" y="-377.12" font-family="sans-serif" font-size="12.00">D</text>
<polygon fill="white" stroke="transparent" points="1071.03,-370.72 1071.03,-389.72 1101.03,-389.72 1101.03,-370.72 1071.03,-370.72"/>
<polygon fill="none" stroke="black" points="1071.03,-370.72 1071.03,-389.72 1101.03,-389.72 1101.03,-370.72 1071.03,-370.72"/>
<text text-anchor="start" x="1074.03" y="-377.12" font-family="sans-serif" font-size="12.00">ACL</text>
<polygon fill="white" stroke="transparent" points="1035.79,-424.11 1035.79,-443.11 1051.79,-443.11 1051.79,-424.11 1035.79,-424.11"/>
<polyline fill="none" stroke="black" points="1051.79,-424.11 1051.79,-443.11 "/>
<text text-anchor="start" x="1038.79" y="-430.51" font-family="sans-serif" font-size="12.00">U</text>
<polygon fill="white" stroke="transparent" points="1051.79,-424.11 1051.79,-443.11 1106.79,-443.11 1106.79,-424.11 1051.79,-424.11"/>
<polygon fill="none" stroke="black" points="1051.79,-424.11 1051.79,-443.11 1106.79,-443.11 1106.79,-424.11 1051.79,-424.11"/>
<text text-anchor="start" x="1054.79" y="-430.51" font-family="sans-serif" font-size="12.00">OHS, PL</text>
</g>
<!-- SecurityManagementContext&#45;&gt;CustomerManagementContext -->
<g id="edge6" class="edge">
<title>SecurityManagementContext&#45;&gt;CustomerManagementContext</title>
<path fill="none" stroke="black" stroke-width="2" d="M1203.75,-432.82C1208.63,-426.42 1212.85,-419.52 1215.84,-412.25 1220.83,-400.11 1217.13,-388.54 1209.46,-378.27"/>
<text text-anchor="middle" x="1293.34" y="-402.65" font-family="sans-serif" font-size="12.00"> &#160;&#160;&#160;&#160;&#160;&#160;&#160;&#160;&#160;&#160;&#160;&#160;&#160;&#160;&#160;&#160;&#160;&#160;&#160;&#160;&#160;&#160;&#160;&#160;&#160;&#160;&#160;&#160;&#160;&#160;&#160;&#160;&#160;&#160;&#160;&#160;&#160;&#160;&#160;</text>
<polygon fill="white" stroke="transparent" points="1186.46,-368.27 1186.46,-387.27 1202.46,-387.27 1202.46,-368.27 1186.46,-368.27"/>
<polyline fill="none" stroke="black" points="1202.46,-368.27 1202.46,-387.27 "/>
<text text-anchor="start" x="1189.46" y="-374.67" font-family="sans-serif" font-size="12.00">D</text>
<polygon fill="white" stroke="transparent" points="1202.46,-368.27 1202.46,-387.27 1232.46,-387.27 1232.46,-368.27 1202.46,-368.27"/>
<polygon fill="none" stroke="black" points="1202.46,-368.27 1202.46,-387.27 1232.46,-387.27 1232.46,-368.27 1202.46,-368.27"/>
<text text-anchor="start" x="1205.46" y="-374.67" font-family="sans-serif" font-size="12.00">ACL</text>
<polygon fill="white" stroke="transparent" points="1179.75,-422.82 1179.75,-441.82 1195.75,-441.82 1195.75,-422.82 1179.75,-422.82"/>
<polyline fill="none" stroke="black" points="1195.75,-422.82 1195.75,-441.82 "/>
<text text-anchor="start" x="1182.75" y="-429.22" font-family="sans-serif" font-size="12.00">U</text>
<polygon fill="white" stroke="transparent" points="1195.75,-422.82 1195.75,-441.82 1228.75,-441.82 1228.75,-422.82 1195.75,-422.82"/>
<polygon fill="none" stroke="black" points="1195.75,-422.82 1195.75,-441.82 1228.75,-441.82 1228.75,-422.82 1195.75,-422.82"/>
<text text-anchor="start" x="1198.75" y="-429.22" font-family="sans-serif" font-size="12.00">OHS</text>
</g>
<!-- ShipingManagementContext -->
<g id="node7" class="node">
<title>ShipingManagementContext</title>
<polygon fill="none" stroke="black" stroke-width="2" points="581.41,-232.23 570.25,-230.84 559.42,-229.35 548.97,-227.77 538.95,-226.11 529.39,-224.37 520.34,-222.55 511.82,-220.67 503.88,-218.72 496.55,-216.72 489.86,-214.67 483.82,-212.58 478.47,-210.46 473.81,-208.3 469.87,-206.12 466.65,-203.92 464.17,-201.71 462.42,-199.49 461.41,-197.27 461.12,-195.06 461.56,-192.85 462.72,-190.66 464.57,-188.5 467.11,-186.35 470.31,-184.24 474.14,-182.15 478.59,-180.11 483.63,-178.11 489.23,-176.15 495.34,-174.24 501.95,-172.39 509.02,-170.59 516.52,-168.85 524.39,-167.18 532.62,-165.57 541.16,-164.03 549.98,-162.56 559.04,-161.17 568.31,-159.86 577.74,-158.62 587.31,-157.47 596.99,-156.4 606.74,-155.42 616.53,-154.53 626.33,-153.74 636.12,-153.04 645.87,-152.43 655.55,-151.92 665.16,-151.52 674.66,-151.21 684.04,-151.01 693.28,-150.91 702.37,-150.93 711.3,-151.05 720.05,-151.27 728.61,-151.61 736.98,-152.06 745.15,-152.62 753.1,-153.29 760.85,-154.07 768.37,-154.96 775.67,-155.96 782.74,-157.06 789.58,-158.28 796.19,-159.6 802.55,-161.02 808.67,-162.54 814.54,-164.16 820.16,-165.87 825.52,-167.67 830.61,-169.56 835.42,-171.52 839.96,-173.57 844.2,-175.68 848.14,-177.87 851.77,-180.11 855.08,-182.4 858.05,-184.74 860.67,-187.12 862.92,-189.53 864.8,-191.97 866.29,-194.43 867.37,-196.89 868.03,-199.36 868.25,-201.82 868.02,-204.26 867.33,-206.68 866.15,-209.08 864.49,-211.43 862.32,-213.73 859.63,-215.98 856.43,-218.17 852.69,-220.29 848.42,-222.32 843.61,-224.28 838.27,-226.14 832.38,-227.9 825.97,-229.56 819.02,-231.11 811.56,-232.54 803.6,-233.86 795.14,-235.05 786.22,-236.11 776.84,-237.04 767.04,-237.84 756.84,-238.5 746.26,-239.02 735.36,-239.4 724.15,-239.65 712.67,-239.75 700.97,-239.72 689.08,-239.55 677.06,-239.24 664.94,-238.8 652.77,-238.23 640.6,-237.53 628.47,-236.7 616.44,-235.75 604.56,-234.69 592.87,-233.51 581.41,-232.23"/>
<text text-anchor="middle" x="677.84" y="-190.09" font-family="sans-serif" font-size="16.00">ShipingManagementContext</text>
</g>
<!-- ShipingManagementContext&#45;&gt;InventoryManagementContext -->
<g id="edge8" class="edge">
<title>ShipingManagementContext&#45;&gt;InventoryManagementContext</title>
<path fill="none" stroke="black" stroke-width="2" d="M761.52,-154.11C792.34,-140.69 827.79,-126.25 860.84,-115.15 899.71,-102.11 942.6,-90.3 982.18,-80.41"/>
<text text-anchor="middle" x="936.34" y="-118.55" font-family="sans-serif" font-size="12.00"> &#160;&#160;&#160;&#160;&#160;&#160;&#160;&#160;&#160;&#160;&#160;&#160;&#160;&#160;&#160;&#160;&#160;&#160;&#160;&#160;&#160;&#160;&#160;&#160;&#160;&#160;&#160;&#160;&#160;&#160;&#160;&#160;&#160;&#160;&#160;&#160;&#160;&#160;&#160;</text>
<polygon fill="white" stroke="transparent" points="963.18,-70.41 963.18,-89.41 979.18,-89.41 979.18,-70.41 963.18,-70.41"/>
<polyline fill="none" stroke="black" points="979.18,-70.41 979.18,-89.41 "/>
<text text-anchor="start" x="966.18" y="-76.81" font-family="sans-serif" font-size="12.00">D</text>
<polygon fill="white" stroke="transparent" points="979.18,-70.41 979.18,-89.41 1001.18,-89.41 1001.18,-70.41 979.18,-70.41"/>
<polygon fill="none" stroke="black" points="979.18,-70.41 979.18,-89.41 1001.18,-89.41 1001.18,-70.41 979.18,-70.41"/>
<text text-anchor="start" x="982.18" y="-76.81" font-family="sans-serif" font-size="12.00">CF</text>
<polygon fill="white" stroke="transparent" points="726.52,-144.11 726.52,-163.11 742.52,-163.11 742.52,-144.11 726.52,-144.11"/>
<polyline fill="none" stroke="black" points="742.52,-144.11 742.52,-163.11 "/>
<text text-anchor="start" x="729.52" y="-150.51" font-family="sans-serif" font-size="12.00">U</text>
<polygon fill="white" stroke="transparent" points="742.52,-144.11 742.52,-163.11 797.52,-163.11 797.52,-144.11 742.52,-144.11"/>
<polygon fill="none" stroke="black" points="742.52,-144.11 742.52,-163.11 797.52,-163.11 797.52,-144.11 742.52,-144.11"/>
<text text-anchor="start" x="745.52" y="-150.51" font-family="sans-serif" font-size="12.00">OHS, PL</text>
</g>
<!-- ShipingManagementContext&#45;&gt;OrderManagementContext -->
<g id="edge7" class="edge">
<title>ShipingManagementContext&#45;&gt;OrderManagementContext</title>
<path fill="none" stroke="black" stroke-width="2" d="M677.84,-151.05C677.84,-132.38 677.84,-110.42 677.84,-91.71"/>
<text text-anchor="middle" x="733.84" y="-118.55" font-family="sans-serif" font-size="12.00">Customer/Supplier</text>
<polygon fill="white" stroke="transparent" points="670.84,-82.71 670.84,-99.71 684.84,-99.71 684.84,-82.71 670.84,-82.71"/>
<text text-anchor="start" x="672.84" y="-88.11" font-family="sans-serif" font-size="12.00">D</text>
<polygon fill="white" stroke="transparent" points="670.84,-142.05 670.84,-159.05 684.84,-159.05 684.84,-142.05 670.84,-142.05"/>
<text text-anchor="start" x="672.84" y="-147.45" font-family="sans-serif" font-size="12.00">U</text>
</g>
</g>
</svg>
